<?xml version="1.0" encoding="UTF-8" standalone="no"?>
<!DOCTYPE svg PUBLIC "-//W3C//DTD SVG 1.1//EN" "http://www.w3.org/Graphics/SVG/1.1/DTD/svg11.dtd">
<svg width="100%" height="100%" viewBox="0 0 2000 800" version="1.1" xmlns="http://www.w3.org/2000/svg" xmlns:xlink="http://www.w3.org/1999/xlink" xml:space="preserve" xmlns:serif="http://www.serif.com/" style="fill-rule:evenodd;clip-rule:evenodd;stroke-linejoin:round;stroke-miterlimit:2;">
    <g transform="matrix(1,0,0,1,-8.52651e-14,-600)">
        <g transform="matrix(1.41143,0,0,0.623539,-143.966,452.845)">
            <rect x="102" y="236" width="1417" height="1283" style="fill:none;"/>
        </g>
        <g transform="matrix(2.04523,0,0,1.28752,-216.327,-226.172)">
            <path d="M608.96,896.863C589.887,899.175 569.126,900.331 553.521,900.331C519.132,900.331 491.857,894.84 472.784,884.726C483.765,876.923 493.013,868.832 501.104,860.74C503.416,858.428 506.306,858.139 510.063,856.694C515.842,854.671 519.31,852.071 519.31,849.181C519.31,844.268 502.838,835.021 499.659,835.021C497.636,835.021 495.902,836.177 494.169,837.622C491.568,839.644 490.412,841.089 486.655,841.089L446.487,841.089C450.532,837.333 454.289,833.865 457.757,830.108C459.491,828.374 459.491,828.085 462.67,827.507C467.582,826.64 470.472,825.773 470.472,824.328C470.472,821.728 464.692,819.705 460.069,817.682L507.751,817.682L507.751,822.017C507.751,826.062 510.93,827.507 514.686,827.507C517.287,827.507 525.668,826.062 525.09,820.572C523.356,797.164 522.2,778.958 522.2,762.486C522.2,737.056 523.934,736.478 527.112,735.033C532.603,732.721 534.915,730.409 534.915,728.098C534.915,722.029 517.287,714.226 514.686,714.226C512.663,714.226 511.507,715.382 509.485,717.116C506.306,719.717 506.306,721.74 500.815,721.74L451.688,721.74L457.757,708.736C459.202,706.424 459.78,704.69 463.537,704.69C468.449,704.401 470.761,702.667 470.761,700.644C470.761,699.488 469.605,698.043 467.582,696.888L569.882,696.888C575.661,696.888 578.262,695.154 578.262,692.264C578.262,683.883 556.878,667.411 550.231,667.411C547.052,667.411 544.162,670.879 535.204,681.571C532.892,684.75 529.135,685.906 525.668,685.906L436.661,685.906C414.121,685.906 380.599,685.039 343.609,681.86L343.32,681.86C341.875,681.86 341.008,682.438 341.008,683.594C341.008,688.796 352.568,701.8 358.347,701.222C384.645,698.043 421.923,696.888 434.638,696.888L444.175,696.888C444.175,698.91 443.886,700.933 443.886,702.667C443.308,706.713 441.574,715.671 440.129,721.74L418.455,721.74C406.318,714.515 399.094,712.204 397.938,712.204C397.071,712.204 397.071,712.493 397.071,713.359L397.071,714.515C398.805,727.231 400.25,757.863 400.25,776.357C400.25,792.251 399.094,805.545 397.071,822.883L397.071,823.75C397.071,828.085 400.539,829.819 404.584,829.819C411.231,829.819 414.699,825.773 414.699,822.306L414.699,817.682L444.753,817.682C437.239,832.42 376.553,888.482 312.977,912.179C311.821,912.757 311.532,913.624 311.532,914.78C311.532,917.669 314.711,922.293 318.179,922.293C318.757,922.293 368.462,907.555 429.148,856.405C433.771,866.52 440.418,875.767 449.087,883.859C420.189,902.064 382.044,917.091 334.362,921.426C332.339,921.426 331.472,923.16 331.472,924.894C331.472,928.073 333.784,932.119 336.674,932.119C338.408,932.119 401.983,929.807 460.358,893.106C488.1,913.046 533.536,924.316 578.328,924.316C580.062,924.316 582.374,923.738 582.952,922.582C588.731,915.358 605.203,907.266 609.249,906.399C610.694,906.11 611.561,903.509 611.561,900.909C611.561,898.886 610.983,896.863 609.249,896.863L608.96,896.863ZM508.04,807.278L414.699,807.278C414.41,799.476 414.41,793.696 414.41,787.917L508.618,787.917L508.04,807.278ZM508.618,749.771L413.832,749.771L413.832,739.368C413.832,737.056 414.41,735.322 417.299,733.299C417.588,733.299 417.877,733.01 418.166,732.432L503.705,732.432C508.04,732.432 508.618,734.455 508.618,736.189L508.618,749.771ZM508.618,777.513L414.121,777.513C414.121,772.312 414.121,767.11 413.832,760.752L508.618,760.752L508.618,777.513ZM484.343,851.782C485.788,851.782 486.655,852.36 486.655,853.227C486.655,853.805 478.853,863.052 459.78,876.634C450.821,869.699 444.175,861.318 439.262,851.782L484.343,851.782Z" style="fill:white;fill-rule:nonzero;"/>
        </g>
        <g transform="matrix(1,0,0,1,112.296,115.359)">
            <path d="M1017.75,1072.83C1016.86,1052 1015.97,1023.01 1015.97,974.601C1015.97,923.065 1015.97,920.462 1020.87,917.859C1027.55,913.694 1029.78,910.571 1029.78,908.489C1029.78,903.803 1022.2,901.201 1015.97,898.598L1072.55,898.598C1075.22,898.598 1077.01,899.639 1077.01,901.201C1077.01,906.406 1051.16,945.449 1042.25,956.902C1041.81,957.422 1041.36,958.464 1041.36,959.505C1041.36,964.19 1047.6,970.437 1052.95,970.437C1056.96,970.437 1058.74,969.396 1101.51,915.777C1105.08,911.091 1111.76,910.05 1115.33,909.009C1125.57,905.886 1129.58,900.68 1129.58,894.954C1129.58,885.583 1109.98,870.487 1101.07,865.281C1099.29,864.76 1097.5,864.24 1096.17,864.24C1093.05,864.24 1091.27,866.322 1088.59,869.446C1085.92,873.09 1082.8,878.295 1077.9,878.295L1005.72,878.295C981.212,878.295 936.656,874.131 910.368,870.487L909.923,870.487C908.586,870.487 908.14,871.007 908.14,872.569C908.14,880.378 926.408,905.365 935.319,904.324C948.241,902.762 972.301,900.159 991.46,899.118C992.351,905.365 993.242,915.777 993.242,927.75C993.687,941.805 994.133,966.793 994.133,993.863C994.133,1035.51 993.687,1048.36 993.242,1066.58C992.796,1082.72 987.45,1087.4 973.192,1087.4C962.498,1087.4 947.795,1085.32 926.854,1082.72C923.735,1082.2 921.507,1089.49 921.507,1095.21C921.507,1098.86 922.398,1102.5 924.626,1103.02C936.656,1105.62 962.053,1109.27 968.736,1119.68C970.964,1122.8 972.301,1123.32 974.528,1123.32C986.559,1123.32 1017.75,1110.31 1017.75,1076.47L1017.75,1072.83ZM835.96,1051.65C835.96,1033.95 835.069,936.6 835.069,913.694L880.961,913.694L880.961,927.75C880.961,934.517 885.417,937.641 890.764,937.641C897.001,937.641 905.913,933.476 905.467,924.626C904.13,887.666 901.903,835.088 901.903,800.209C901.903,766.372 903.685,764.29 909.031,761.687C917.052,757.002 920.616,752.837 920.616,748.152C920.616,736.699 893.883,720.562 889.427,720.562C887.199,720.562 885.417,722.644 883.189,724.726C877.397,732.014 879.625,736.179 869.822,736.179L777.146,736.179C775.81,735.138 754.868,719 748.631,719C747.294,719 747.294,719.521 747.294,721.082L747.294,723.685C750.858,753.878 751.75,810.1 751.75,831.444C751.75,868.404 750.413,903.803 747.74,934.517L747.74,936.079C747.74,944.408 752.641,947.532 758.433,947.532C765.562,947.532 773.136,942.326 773.136,933.476L772.691,913.694L815.464,913.694C815.464,936.6 813.682,1058.41 813.682,1058.41C768.681,1072.47 724.125,1083.92 706.748,1084.44C704.075,1084.44 702.738,1085.48 702.738,1087.05C702.738,1088.09 702.738,1088.61 703.184,1089.65C706.303,1102.14 720.115,1128.17 727.244,1128.17C733.482,1128.17 736.155,1114.64 741.502,1112.55C937.547,1041.24 939.775,1040.19 939.775,1029.78C939.775,1024.06 936.656,1017.81 931.755,1017.81C930.864,1017.81 929.973,1017.81 929.082,1018.33C917.497,1024.06 878.288,1037.59 835.96,1051.65ZM881.852,816.868L881.852,836.129C881.852,855.39 881.852,875.172 881.407,893.392L835.069,893.392C835.514,874.651 835.514,855.911 835.514,836.129L835.96,816.868C835.96,804.374 836.406,791.36 836.406,777.825C836.406,766.893 839.524,767.934 842.643,765.852C845.762,763.769 847.099,761.687 847.099,759.605C847.099,758.043 846.208,757.002 844.426,755.961L874.724,755.961C880.516,755.961 881.407,759.605 881.407,763.249C881.407,775.742 881.852,795.004 881.852,816.868ZM815.464,816.868L815.464,893.392L772.691,893.392C772.691,873.09 772.245,854.87 772.245,836.129L771.8,816.868L771.8,767.934C771.8,764.29 773.582,761.166 776.701,758.564L779.82,755.961L813.682,755.961C814.128,761.687 814.573,767.934 814.573,778.866L815.464,816.868ZM1037.8,757.522C1040.03,757.522 1041.36,758.043 1041.36,759.605C1041.36,762.728 1021.31,800.73 1009.73,819.471C991.905,803.333 970.518,790.839 966.508,790.839C961.607,790.839 956.706,797.607 956.706,802.292C956.706,803.853 957.152,805.415 958.488,806.456C972.746,816.347 996.361,840.814 1006.16,859.555C1011.06,868.925 1016.86,872.569 1021.31,872.569C1027.1,872.569 1032.01,866.322 1032.01,856.952C1032.01,851.746 1027.1,836.129 1020.87,830.923C1033.34,816.868 1052.95,789.277 1063.64,775.222C1067.2,771.057 1073.89,768.975 1078.34,767.413C1085.92,764.29 1089.04,760.125 1089.04,755.44C1089.04,743.467 1064.98,725.247 1058.29,725.247C1055.62,725.247 1053.84,726.809 1051.61,729.932C1048.94,733.055 1045.82,737.22 1041.36,737.22L1003.04,737.22C981.657,737.22 953.142,733.576 929.973,730.453L929.527,730.453C928.19,730.453 927.745,730.973 927.745,732.014C927.745,738.782 944.676,764.29 953.142,762.728C968.291,760.646 993.687,757.522 1008.84,757.522L1037.8,757.522Z" style="fill:white;fill-rule:nonzero;"/>
        </g>
        <g transform="matrix(1.90466,0,0,1.1657,427.138,280.631)">
            <path d="M572.483,845.713C578.551,845.713 580.863,843.69 580.863,840.8C580.863,832.131 559.767,815.948 553.699,815.948C551.676,815.948 550.231,817.104 547.63,818.838C545.029,820.861 540.117,826.929 536.938,830.108C533.759,833.287 532.025,834.732 525.379,834.732L466.715,834.732L466.715,834.154C467.004,828.085 467.004,826.062 471.05,824.039C475.963,821.728 478.564,819.416 478.564,817.393C478.564,813.636 469.894,811.324 462.67,810.168L462.959,810.168C467.293,810.168 471.917,805.256 471.917,798.031C471.917,781.559 448.798,761.619 445.62,761.619C442.73,761.619 438.684,764.509 438.684,766.821C438.684,767.399 438.684,767.977 439.262,768.555C445.909,775.202 452.555,789.362 454.867,800.343C456.023,805.834 458.335,809.012 460.936,809.879C456.601,809.301 453.133,809.012 452.266,809.012C450.532,809.012 449.954,809.301 449.954,810.168C449.954,810.457 449.954,811.035 450.243,811.902C451.688,819.416 451.977,826.351 452.266,834.732L426.547,834.732C398.516,834.732 355.168,831.553 340.719,830.108L340.141,830.108C338.696,830.108 338.119,830.686 338.119,831.553C338.119,836.466 352.279,850.626 359.214,850.048C372.796,848.603 399.094,845.713 423.657,845.713L444.464,845.713C413.254,876.923 367.306,904.087 316.734,917.38C315,917.669 314.133,919.403 314.133,920.848C314.133,923.738 316.445,927.206 320.202,927.206C325.403,927.206 405.162,910.734 452.555,855.827C452.266,874.322 451.399,897.441 448.798,924.027L448.798,924.605C448.798,929.518 452.844,931.83 456.89,931.83C462.092,931.83 467.871,928.651 467.582,923.16C466.426,902.353 466.137,885.881 466.137,871.143L466.137,853.805C506.306,895.996 564.969,917.38 570.46,917.38C571.616,917.38 573.639,917.091 574.794,916.225C581.152,911.023 593.289,908.133 600.803,906.688C603.404,906.11 604.849,903.22 604.849,900.909C604.849,898.886 603.982,897.152 601.959,897.152C547.919,895.129 501.393,872.01 472.495,845.713L572.483,845.713ZM573.639,715.382C579.129,715.382 581.441,713.359 581.441,710.47C581.441,701.8 562.946,684.172 554.855,684.172C550.231,684.172 539.828,699.199 539.25,699.777C536.938,702.956 533.759,704.112 530.291,704.112L494.169,704.112C493.88,700.066 493.88,696.31 493.88,693.131C494.169,689.952 495.036,688.218 497.636,687.062C501.971,685.039 505.439,682.438 505.439,679.838C505.439,675.503 490.99,672.324 479.72,672.324C476.541,672.324 475.385,672.902 475.385,674.058C475.385,675.214 475.963,676.659 476.541,678.393C477.408,682.149 479.142,694.576 479.142,704.112L436.372,704.112C436.372,693.998 436.372,688.507 440.418,687.062C444.175,685.328 447.643,682.727 447.643,680.127C447.643,674.347 427.703,672.324 422.501,672.324C419.322,672.324 418.166,672.902 418.166,674.058C418.166,675.214 418.744,676.37 419.322,678.393C421.923,690.241 421.923,703.245 421.923,703.823C400.539,703.823 250.412,702.667 218.913,700.066L218.624,700.066C217.179,700.066 216.601,700.644 216.601,701.8C216.601,707.002 230.183,720.584 234.807,719.717C255.036,715.96 405.162,715.382 421.923,715.382C421.634,719.139 421.056,729.831 421.056,730.987C421.056,735.322 424.235,737.056 427.992,737.056C429.437,737.056 437.817,735.611 437.528,729.542L436.661,715.382L479.142,715.382C479.142,718.561 479.142,721.74 478.853,725.208L478.853,725.786C478.853,730.409 482.32,732.432 486.077,732.432C490.412,732.432 495.325,729.831 495.036,724.63C495.036,721.451 494.747,718.272 494.747,715.382L573.639,715.382ZM543.584,750.06C543.584,742.836 529.424,728.675 527.979,728.675C527.112,728.675 526.246,728.964 524.512,729.831C502.549,739.079 447.919,747.459 380.586,749.482C378.852,749.482 377.696,752.083 377.696,754.684C377.696,757.863 379.43,761.33 383.476,761.33C444.451,759.885 497.058,751.505 516.998,749.193C519.599,748.904 521.333,748.904 522.778,748.904C525.09,748.904 526.535,749.193 529.424,750.927C533.181,752.95 536.36,754.106 538.961,754.106C541.851,754.106 543.584,752.661 543.584,750.06ZM540.406,778.669C540.406,772.023 520.177,761.041 515.842,761.041C514.686,761.041 514.108,762.197 513.819,763.353C509.774,779.536 495.613,803.522 485.499,819.416C485.21,819.994 484.921,820.861 484.921,821.439C484.921,824.039 487.811,826.062 490.701,826.062C494.169,826.062 494.458,826.062 523.067,786.472C525.379,783.582 527.112,783.293 531.447,783.293C538.094,783.004 540.406,780.981 540.406,778.669ZM420.189,819.705C424.524,819.705 427.992,815.659 427.992,809.879C427.992,791.962 391.002,772.601 389.268,772.601C386.378,772.601 382.622,776.646 382.622,779.247C382.622,780.114 382.911,780.692 383.778,781.27C392.158,786.472 405.162,800.921 410.075,811.324C412.965,817.393 416.722,819.705 420.189,819.705Z" style="fill:white;fill-rule:nonzero;"/>
        </g>
    </g>
</svg>
